<svg width="0" height="0" class="hidden">
  <symbol version="1.0" xmlns="http://www.w3.org/2000/svg" preserveAspectRatio="xMidYMid meet" viewBox="0 0 156.000000 156.000000" id="git">
    <g transform="translate(0.000000,156.000000) scale(0.100000,-0.100000)" fill="#000000" stroke="none">
      <path d="M185 1437 c-22 -13 -49 -40 -62 -62 l-23 -40 0 -503 c0 -402 3 -509
14 -535 17 -42 66 -83 114 -97 52 -14 949 -14 1006 1 45 11 84 41 114 87 15
24 17 70 20 514 2 324 -1 501 -8 527 -13 50 -54 100 -97 117 -26 11 -133 14
-535 14 l-503 0 -40 -23z m1051 -85 c32 -21 34 -52 34 -532 l0 -481 -25 -24
-24 -25 -481 0 c-480 0 -511 2 -532 34 -4 6 -8 233 -8 505 0 446 2 496 17 513
15 17 44 18 512 18 273 0 501 -4 507 -8z"></path>
      <path d="M348 1255 c-86 -48 -63 -166 35 -182 32 -5 41 -1 73 31 32 32 36 41
31 73 -12 70 -83 109 -139 78z"></path>
      <path d="M290 680 l0 -290 100 0 100 0 0 290 0 290 -100 0 -100 0 0 -290z"></path>
      <path d="M590 680 l0 -290 94 0 94 0 4 181 3 181 28 24 c20 17 40 24 71 24 84
0 95 -31 96 -257 l0 -153 95 0 95 0 0 185 c0 101 -5 207 -11 234 -23 109 -92
161 -212 161 -75 0 -114 -15 -146 -56 l-21 -27 0 42 0 41 -95 0 -95 0 0 -290z"></path>
    </g>
  </symbol>
  <symbol version="1.0" xmlns="http://www.w3.org/2000/svg" preserveAspectRatio="xMidYMid meet" viewBox="0 0 152.000000 152.000000" id="ld">
    <g transform="translate(0.000000,152.000000) scale(0.100000,-0.100000)" fill="#000000" stroke="none">
      <path d="M562 1406 c-166 -41 -326 -171 -400 -327 -48 -101 -62 -162 -62 -277
0 -241 132 -447 355 -553 33 -16 65 -29 72 -29 26 0 43 32 43 81 l0 49 -55 0
c-85 0 -142 34 -177 105 -11 22 -34 54 -50 71 -19 21 -26 34 -19 39 22 13 81
-17 113 -57 36 -46 80 -68 137 -68 46 0 46 1 56 56 l6 42 -38 7 c-101 18 -196
90 -233 177 -32 75 -26 191 15 266 15 28 32 52 36 52 5 0 4 12 -1 26 -14 35
-13 107 2 139 8 19 19 25 43 25 33 0 125 -41 145 -65 8 -10 19 -11 48 -3 21 6
88 8 159 5 94 -4 125 -2 133 8 19 23 98 55 134 55 32 0 36 -3 45 -37 12 -44
13 -89 2 -118 -6 -14 -1 -31 16 -57 74 -112 69 -270 -12 -365 -38 -44 -131
-98 -189 -108 -37 -8 -38 -8 -32 -44 3 -20 6 -87 6 -149 0 -109 1 -113 24
-123 20 -10 36 -5 103 26 97 47 221 167 271 262 185 354 -6 787 -393 888 -71
18 -228 19 -303 1z"></path>
    </g>
  </symbol>
  <symbol version="1.0" xmlns="http://www.w3.org/2000/svg" preserveAspectRatio="xMidYMid meet" viewBox="0 0 227.000000 172.000000" id="mail">
    <g transform="translate(0.000000,172.000000) scale(0.100000,-0.100000)" fill="#000000" stroke="none">
      <path d="M301 1595 c-100 -31 -187 -116 -227 -220 -18 -47 -19 -82 -19 -530 0
-434 2 -485 18 -530 24 -69 75 -135 133 -174 95 -63 69 -61 938 -61 l791 0 56
23 c71 30 123 69 160 124 60 87 60 83 60 610 0 265 -3 494 -7 510 -22 92 -99
185 -192 230 l-57 28 -805 2 c-662 2 -813 -1 -849 -12z m1642 -151 c15 -9 -31
-55 -335 -338 -193 -181 -367 -335 -385 -342 -42 -18 -134 -18 -176 0 -18 7
-192 161 -386 342 l-353 329 28 12 c38 16 1579 14 1607 -3z m-1494 -346 c124
-116 236 -221 249 -233 l22 -21 -249 -232 c-138 -128 -252 -232 -255 -232 -3
0 -6 209 -6 465 0 256 3 465 6 465 3 0 108 -95 233 -212z m1611 -253 c0 -256
-3 -465 -6 -465 -4 0 -259 234 -462 425 l-43 40 173 160 c95 88 207 192 248
232 41 40 78 73 83 73 4 0 7 -209 7 -465z m-1179 -149 c152 -136 363 -134 514
5 l44 40 261 -243 261 -243 -28 -12 c-41 -18 -1556 -17 -1597 0 l-28 12 173
161 c96 89 212 198 259 242 47 45 87 81 89 82 1 0 25 -20 52 -44z"></path>
    </g>
  </symbol>
  <symbol id="menu" enable-background="new 0 0 24 24" xmlns="http://www.w3.org/2000/svg" viewBox="0 0 24 24">
    <g>
      <path d="m21.5 24h-19c-1.379 0-2.5-1.122-2.5-2.5v-19c0-1.378 1.121-2.5 2.5-2.5h19c1.379 0 2.5 1.122 2.5 2.5v19c0 1.378-1.121 2.5-2.5 2.5zm-19-23c-.827 0-1.5.673-1.5 1.5v19c0 .827.673 1.5 1.5 1.5h19c.827 0 1.5-.673 1.5-1.5v-19c0-.827-.673-1.5-1.5-1.5z"></path>
    </g>
    <g>
      <path d="m16.5 8h-9c-.276 0-.5-.224-.5-.5s.224-.5.5-.5h9c.276 0 .5.224.5.5s-.224.5-.5.5z"></path>
    </g>
    <g>
      <path d="m16.5 12.5h-9c-.276 0-.5-.224-.5-.5s.224-.5.5-.5h9c.276 0 .5.224.5.5s-.224.5-.5.5z"></path>
    </g>
    <g>
      <path d="m16.5 17h-9c-.276 0-.5-.224-.5-.5s.224-.5.5-.5h9c.276 0 .5.224.5.5s-.224.5-.5.5z"></path>
    </g>
  </symbol>
  <symbol version="1.0" xmlns="http://www.w3.org/2000/svg" preserveAspectRatio="xMidYMid meet" viewBox="0 0 200.000000 200.000000" id="Neha_logo">
    <g transform="translate(0.000000,200.000000) scale(0.100000,-0.100000)" fill="#000000" stroke="none">
      <path d="M0 1089 c0 -725 3 -909 13 -903 54 32 447 307 447 314 0 5 -44 78
-99 162 l-98 153 -82 510 c-45 281 -81 513 -81 518 0 21 25 -3 111 -110 l94
-118 3 178 c1 98 7 177 12 177 13 0 230 -673 281 -870 23 -91 44 -167 45 -169
2 -2 37 26 77 63 41 36 78 66 82 66 13 0 155 -132 155 -145 0 -7 -20 -15 -49
-19 -49 -6 -50 -7 -45 -39 7 -58 35 -409 32 -412 -2 -2 -64 -57 -138 -124
l-134 -120 -26 -101 -26 -100 713 0 713 0 0 549 c0 540 0 549 -20 554 -15 4
-20 14 -21 39 l-1 33 -13 -31 c-18 -41 -38 -56 -72 -52 -48 5 -63 52 -63 194
0 67 5 135 11 153 18 50 65 66 101 34 17 -15 18 -13 18 76 0 51 -5 101 -10
112 -15 26 -46 24 -74 -6 -29 -31 -32 -31 -40 1 -10 38 44 94 89 94 40 0 64
-26 81 -87 11 -44 13 -31 13 145 l1 192 -1000 0 -1000 0 0 -911z m1491 739 c0
-79 3 -136 6 -128 11 30 37 50 65 50 25 0 32 -7 51 -47 20 -45 21 -63 22 -323
l0 -275 -25 0 -25 0 -5 277 c-5 283 -9 308 -44 295 -34 -13 -40 -58 -44 -320
l-4 -258 -26 3 -27 3 -3 433 -2 432 30 0 30 0 1 -142z m-791 90 c1 -2 27 -131
59 -288 l59 -285 1 288 1 287 30 0 30 0 -2 -407 -3 -408 -26 -3 c-15 -2 -28 3
-31 10 -3 7 -29 136 -59 287 l-54 274 -5 -284 -5 -284 -27 -3 -28 -3 0 410 0
411 30 0 c17 0 30 -1 30 -2z m499 -178 c35 -18 53 -87 59 -227 l5 -133 -77 0
-76 0 0 -82 c0 -92 14 -131 47 -136 25 -4 38 16 48 75 6 38 9 41 28 34 18 -7
21 -15 19 -42 -9 -99 -38 -139 -98 -139 -43 0 -80 44 -91 108 -10 61 -10 383
0 444 15 86 76 130 136 98z m228 -1102 c-2 -35 -3 -7 -3 62 0 69 1 97 3 63 2
-35 2 -91 0 -125z m307 135 c-1 -27 -3 -81 -3 -122 -1 -111 -11 -80 -12 41 -1
89 3 128 14 128 2 0 2 -21 1 -47z m43 25 c-3 -8 -6 -5 -6 6 -1 11 2 17 5 13 3
-3 4 -12 1 -19z m50 -160 c-2 -35 -3 -7 -3 62 0 69 1 97 3 63 2 -35 2 -91 0
-125z m-879 97 c2 -44 -1 -62 -12 -70 -8 -6 -16 -29 -19 -51 -2 -21 -4 12 -5
74 -2 103 0 113 16 110 13 -3 18 -15 20 -63z m72 -36 c0 -37 -4 -49 -15 -49
-9 0 -15 -9 -15 -24 0 -30 17 -43 23 -19 4 14 5 13 6 -4 1 -27 -18 -41 -30
-22 -12 20 -11 136 2 160 16 31 29 12 29 -42z m129 28 c0 -21 -1 -21 -9 -2 -5
12 -9 14 -9 6 -1 -8 -4 -12 -7 -8 -10 10 5 39 16 32 5 -3 10 -16 9 -28z m79
-74 c-3 -74 -9 -90 -27 -78 -12 7 -15 167 -4 179 4 4 14 -1 21 -11 9 -12 12
-40 10 -90z m152 6 c0 -57 -4 -78 -14 -82 -17 -7 -26 13 -26 59 0 22 6 37 15
40 21 8 20 54 -1 54 -14 0 -14 3 -4 15 21 25 30 -1 30 -86z m170 6 c0 -38 -5
-77 -10 -85 -5 -8 -10 -10 -11 -5 -1 6 -5 -6 -9 -25 -5 -24 -8 0 -9 76 -1 73
3 114 11 122 19 19 28 -5 28 -83z m130 0 c0 -82 -12 -114 -31 -84 -12 20 -11
136 2 160 19 36 29 9 29 -76z m230 23 c0 -27 -4 -38 -15 -38 -10 0 -15 -10
-15 -30 0 -32 16 -41 23 -12 3 12 5 13 6 2 1 -22 -15 -44 -28 -36 -12 8 -15
143 -4 172 6 16 7 16 20 -2 7 -10 13 -35 13 -56z m-828 49 c-6 -7 -13 -46 -15
-87 l-3 -75 -2 88 c-2 74 0 87 14 87 12 0 14 -3 6 -13z m218 -4 c0 -15 -2 -16
-10 -3 -7 11 -10 5 -11 -25 -2 -32 -3 -34 -6 -12 -3 16 -2 35 1 43 8 20 26 17
26 -3z m300 -73 l-7 -85 -1 81 c-1 44 1 84 5 87 9 10 9 10 3 -83z m177 -43
c-2 -23 -3 -1 -3 48 0 50 1 68 3 42 2 -26 2 -67 0 -90z m-470 -4 c-2 -21 -4
-6 -4 32 0 39 2 55 4 38 2 -18 2 -50 0 -70z m-159 -2 c-3 -34 -28 -58 -28 -26
0 9 5 13 10 10 6 -4 10 6 10 24 0 16 -4 33 -10 36 -5 3 -10 16 -10 28 0 19 2
18 16 -8 8 -16 14 -45 12 -64z"></path>
      <path d="M1129 1664 c-9 -11 -15 -49 -17 -111 l-4 -93 46 0 46 0 0 83 c0 85
-14 130 -41 135 -9 1 -22 -5 -30 -14z"></path>
      <path d="M920 730 c0 -27 5 -50 10 -50 6 0 10 23 10 50 0 28 -4 50 -10 50 -5
0 -10 -22 -10 -50z"></path>
      <path d="M997 733 c-11 -10 -8 -63 3 -63 6 0 10 16 10 35 0 36 -2 40 -13 28z"></path>
      <path d="M1200 665 c0 -48 4 -74 10 -70 6 3 10 35 10 70 0 35 -4 67 -10 70 -6
4 -10 -22 -10 -70z"></path>
      <path d="M1350 625 c0 -19 5 -35 10 -35 6 0 10 16 10 35 0 19 -4 35 -10 35 -5
0 -10 -16 -10 -35z"></path>
      <path d="M1520 660 c0 -40 4 -70 10 -70 6 0 10 30 10 70 0 40 -4 70 -10 70 -6
0 -10 -30 -10 -70z"></path>
      <path d="M1657 733 c-11 -10 -8 -131 3 -138 6 -4 10 22 10 69 0 76 -1 82 -13
69z"></path>
      <path d="M1880 706 c0 -20 5 -36 10 -36 6 0 10 13 10 29 0 17 -4 33 -10 36 -6
4 -10 -8 -10 -29z"></path>
      <path d="M133 1758 c3 -13 35 -210 72 -438 36 -228 69 -424 73 -434 6 -15 34
28 126 197 l117 215 -191 241 c-105 133 -194 241 -197 241 -3 0 -3 -10 0 -22z"></path>
      <path d="M1870 1404 c-6 -14 -10 -63 -10 -109 0 -97 11 -135 39 -135 31 0 41
31 41 132 0 68 -4 100 -16 116 -20 29 -42 28 -54 -4z"></path>
      <path d="M745 974 l-60 -53 90 0 c50 1 101 4 114 8 23 6 21 8 -31 53 l-54 46
-59 -54z"></path>
      <path d="M674 823 c4 -15 24 -91 44 -167 41 -154 29 -139 131 -171 l24 -7 -6
80 c-3 45 -11 90 -19 101 -8 11 -51 59 -97 106 -69 72 -82 82 -77 58z"></path>
      <path d="M282 334 c-116 -80 -212 -149 -212 -154 0 -4 40 -11 90 -15 l89 -7
203 148 c112 81 210 153 218 161 12 11 -1 13 -81 13 l-94 0 -213 -146z"></path>
      <path d="M551 135 c-29 -25 -30 -27 -15 -51 9 -13 19 -24 23 -24 8 0 34 91 28
97 -3 2 -18 -8 -36 -22z"></path>
      <path d="M0 76 l0 -76 281 0 280 0 -17 28 c-41 70 -33 67 -254 91 -113 12
-224 25 -247 28 l-43 6 0 -77z"></path>
    </g>
  </symbol>
  <symbol version="1.0" xmlns="http://www.w3.org/2000/svg" preserveAspectRatio="xMidYMid meet" viewBox="0 0 169.000000 169.000000" id="ph">
    <g transform="translate(0.000000,169.000000) scale(0.100000,-0.100000)" fill="#000000" stroke="none">
      <path d="M301 1544 c-97 -26 -171 -103 -191 -197 -8 -36 -10 -207 -8 -547 l3
-495 29 -53 c33 -59 88 -108 144 -128 29 -10 152 -13 543 -14 570 0 566 -1
642 73 85 84 82 56 85 631 3 572 4 567 -68 649 -22 25 -61 55 -87 68 l-48 24
-495 2 c-412 2 -504 0 -549 -13z m328 -340 c34 -58 61 -114 61 -124 0 -10 -27
-41 -60 -70 -33 -29 -60 -60 -60 -70 0 -28 97 -169 156 -226 56 -55 178 -134
206 -134 9 0 42 27 74 60 32 33 64 60 72 60 8 0 26 -8 40 -18 15 -11 54 -33
87 -51 33 -17 71 -40 84 -50 24 -18 24 -20 12 -75 -15 -68 -63 -115 -147 -141
-75 -23 -137 -16 -248 29 -121 48 -205 105 -307 206 -106 104 -176 209 -217
326 -43 123 -47 152 -27 219 33 116 83 164 172 165 l41 0 61 -106z"></path>
    </g>
  </symbol>
  <symbol xmlns="http://www.w3.org/2000/svg" viewBox="0 0 16 11" id="tick">
    <defs></defs>
    <path id="Shape_10_copy_5" d="M2,4L6,8l8-8"></path>
  </symbol>
</svg>